<?xml version="1.0" encoding="UTF-8" standalone="no"?>
<!-- Created with Inkscape (http://www.inkscape.org/) -->

<svg
   xmlns:dc="http://purl.org/dc/elements/1.1/"
   xmlns:cc="http://creativecommons.org/ns#"
   xmlns:rdf="http://www.w3.org/1999/02/22-rdf-syntax-ns#"
   xmlns:svg="http://www.w3.org/2000/svg"
   xmlns="http://www.w3.org/2000/svg"
   xmlns:sodipodi="http://sodipodi.sourceforge.net/DTD/sodipodi-0.dtd"
   xmlns:inkscape="http://www.inkscape.org/namespaces/inkscape"
   width="210mm"
   height="297mm"
   viewBox="0 0 744.09448819 1052.3622047"
   id="svg4493"
   version="1.1"
   inkscape:version="0.91 r13725"
   sodipodi:docname="JouleThief.svg">
  <defs
     id="defs4495" />
  <sodipodi:namedview
     id="base"
     pagecolor="#ffffff"
     bordercolor="#666666"
     borderopacity="1.0"
     inkscape:pageopacity="0.0"
     inkscape:pageshadow="2"
     inkscape:zoom="5.6"
     inkscape:cx="39.44389"
     inkscape:cy="995.19045"
     inkscape:document-units="px"
     inkscape:current-layer="layer1"
     showgrid="false"
     inkscape:window-width="1920"
     inkscape:window-height="1003"
     inkscape:window-x="-9"
     inkscape:window-y="-9"
     inkscape:window-maximized="1" />
  <metadata
     id="metadata4498">
    <rdf:RDF>
      <cc:Work
         rdf:about="">
        <dc:format>image/svg+xml</dc:format>
        <dc:type
           rdf:resource="http://purl.org/dc/dcmitype/StillImage" />
        <dc:title></dc:title>
      </cc:Work>
    </rdf:RDF>
  </metadata>
  <g
     inkscape:label="Layer 1"
     inkscape:groupmode="layer"
     id="layer1">
    <path
       style="fill:none;fill-rule:evenodd;stroke:#000000;stroke-width:1px;stroke-linecap:butt;stroke-linejoin:miter;stroke-opacity:1"
       d="m 37.753799,41.65081 c -2.767861,0 -2.767861,0 -2.767861,0"
       id="path4346"
       inkscape:connector-curvature="0" />
    <g
       transform="matrix(3.5433068,0,0,3.5433071,-158.65615,-35255.475)"
       id="g4348">
      <g
         transform="matrix(0,-0.28222222,-0.28222224,0,64.844659,9980.0003)"
         id="g4350">
        <path
           style="fill:none;fill-opacity:1;stroke:#000000;stroke-width:0.99921262;stroke-linecap:butt;stroke-linejoin:round;stroke-miterlimit:4;stroke-dasharray:none;stroke-opacity:1"
           d="m 64.950853,16.200788 a 3.0384342,3.0442173 0 0 1 -2.986565,-3.043774 3.0384342,3.0442173 0 0 1 2.986533,-3.043773"
           id="path4352"
           inkscape:connector-curvature="0" />
        <path
           style="fill:none;fill-opacity:1;stroke:#000000;stroke-width:0.99921262;stroke-linecap:butt;stroke-linejoin:round;stroke-miterlimit:4;stroke-dasharray:none;stroke-opacity:1"
           d="m 64.950853,22.280975 a 3.0384342,3.0442173 0 0 1 -2.986565,-3.043774 3.0384342,3.0442173 0 0 1 2.986533,-3.043773"
           id="path4354"
           inkscape:connector-curvature="0" />
        <path
           style="fill:none;fill-opacity:1;stroke:#000000;stroke-width:0.99921262;stroke-linecap:butt;stroke-linejoin:round;stroke-miterlimit:4;stroke-dasharray:none;stroke-opacity:1"
           d="m 64.950853,28.43731 a 3.0384342,3.0442173 0 0 1 -2.986565,-3.043774 3.0384342,3.0442173 0 0 1 2.986533,-3.043773"
           id="path4356"
           inkscape:connector-curvature="0" />
        <path
           style="fill:none;fill-opacity:1;stroke:#000000;stroke-width:0.99921262;stroke-linecap:butt;stroke-linejoin:round;stroke-miterlimit:4;stroke-dasharray:none;stroke-opacity:1"
           d="M 64.950853,34.517497 A 3.0384342,3.0442173 0 0 1 61.964288,31.473723 3.0384342,3.0442173 0 0 1 64.950821,28.42995"
           id="path4358"
           inkscape:connector-curvature="0" />
      </g>
      <ellipse
         style="fill:none;fill-opacity:1;stroke:#000000;stroke-width:0.02;stroke-linecap:butt;stroke-linejoin:round;stroke-miterlimit:4;stroke-dasharray:none;stroke-opacity:1"
         id="ellipse4360"
         cx="9961.6367"
         cy="-63.177776"
         transform="matrix(0,1,-1,0,0,0)"
         rx="0.38999999"
         ry="0.39000002" />
      <path
         inkscape:connector-curvature="0"
         id="path4362"
         d="m 61.868386,9961.8012 c 0.781152,0 0.781152,0 0.781152,0"
         style="fill:none;fill-rule:evenodd;stroke:#000000;stroke-width:0.28222224px;stroke-linecap:butt;stroke-linejoin:miter;stroke-opacity:1" />
      <ellipse
         transform="matrix(0,1,1,0,0,0)"
         style="fill:none;fill-opacity:1;stroke:#000000;stroke-width:0.02;stroke-linecap:butt;stroke-linejoin:round;stroke-miterlimit:4;stroke-dasharray:none;stroke-opacity:1"
         id="ellipse4364"
         cx="9961.6328"
         cy="54.222298"
         rx="0.38999999"
         ry="0.39000002" />
      <ellipse
         style="fill:none;fill-opacity:1;stroke:#000000;stroke-width:0.28200001;stroke-linecap:butt;stroke-linejoin:round;stroke-miterlimit:4;stroke-dasharray:none;stroke-opacity:1"
         id="ellipse4366"
         cx="9962.8662"
         cy="-62.136921"
         transform="matrix(0,1,-1,0,0,0)"
         rx="0.23999999"
         ry="0.24000002" />
    </g>
    <g
       transform="matrix(3.5433068,0,0,3.5433071,-155.81516,-35243.452)"
       id="g4368">
      <g
         transform="matrix(0,0.28222222,0.28222224,0,51.193732,9930.6444)"
         id="g4370">
        <path
           style="fill:none;fill-opacity:1;stroke:#000000;stroke-width:0.99921262;stroke-linecap:butt;stroke-linejoin:round;stroke-miterlimit:4;stroke-dasharray:none;stroke-opacity:1"
           d="m 64.950853,16.200788 a 3.0384342,3.0442173 0 0 1 -2.986565,-3.043774 3.0384342,3.0442173 0 0 1 2.986533,-3.043773"
           id="path4372"
           inkscape:connector-curvature="0" />
        <path
           style="fill:none;fill-opacity:1;stroke:#000000;stroke-width:0.99921262;stroke-linecap:butt;stroke-linejoin:round;stroke-miterlimit:4;stroke-dasharray:none;stroke-opacity:1"
           d="m 64.950853,22.280975 a 3.0384342,3.0442173 0 0 1 -2.986565,-3.043774 3.0384342,3.0442173 0 0 1 2.986533,-3.043773"
           id="path4374"
           inkscape:connector-curvature="0" />
        <path
           style="fill:none;fill-opacity:1;stroke:#000000;stroke-width:0.99921262;stroke-linecap:butt;stroke-linejoin:round;stroke-miterlimit:4;stroke-dasharray:none;stroke-opacity:1"
           d="m 64.950853,28.43731 a 3.0384342,3.0442173 0 0 1 -2.986565,-3.043774 3.0384342,3.0442173 0 0 1 2.986533,-3.043773"
           id="path4376"
           inkscape:connector-curvature="0" />
        <path
           style="fill:none;fill-opacity:1;stroke:#000000;stroke-width:0.99921262;stroke-linecap:butt;stroke-linejoin:round;stroke-miterlimit:4;stroke-dasharray:none;stroke-opacity:1"
           d="M 64.950853,34.517497 A 3.0384342,3.0442173 0 0 1 61.964288,31.473723 3.0384342,3.0442173 0 0 1 64.950821,28.42995"
           id="path4378"
           inkscape:connector-curvature="0" />
      </g>
      <ellipse
         style="fill:none;fill-opacity:1;stroke:#000000;stroke-width:0.02;stroke-linecap:butt;stroke-linejoin:round;stroke-miterlimit:4;stroke-dasharray:none;stroke-opacity:1"
         id="ellipse4380"
         cx="-9948.708"
         cy="53.160618"
         transform="matrix(0,-1,1,0,0,0)"
         rx="0.39000002"
         ry="0.39000005" />
      <path
         inkscape:connector-curvature="0"
         id="path4382"
         d="m 54.170005,9948.8436 c -0.781149,0 -0.781149,0 -0.781149,0"
         style="fill:none;fill-rule:evenodd;stroke:#000000;stroke-width:0.28222224px;stroke-linecap:butt;stroke-linejoin:miter;stroke-opacity:1" />
      <ellipse
         transform="matrix(0,-1,-1,0,0,0)"
         style="fill:none;fill-opacity:1;stroke:#000000;stroke-width:0.02;stroke-linecap:butt;stroke-linejoin:round;stroke-miterlimit:4;stroke-dasharray:none;stroke-opacity:1"
         id="ellipse4384"
         cx="-9948.7119"
         cy="-62.116085"
         rx="0.38999999"
         ry="0.39000002" />
      <path
         inkscape:connector-curvature="0"
         id="path4386"
         d="m 60.806695,9948.8473 c 0.781152,0 0.781152,0 0.781152,0"
         style="fill:none;fill-rule:evenodd;stroke:#000000;stroke-width:0.28222224px;stroke-linecap:butt;stroke-linejoin:miter;stroke-opacity:1" />
      <ellipse
         style="fill:none;fill-opacity:1;stroke:#000000;stroke-width:0.28200001;stroke-linecap:butt;stroke-linejoin:round;stroke-miterlimit:4;stroke-dasharray:none;stroke-opacity:1"
         id="ellipse4388"
         cx="-9947.7783"
         cy="53.90147"
         transform="matrix(0,-1,1,0,0,0)"
         rx="0.23999999"
         ry="0.24000002" />
    </g>
    <text
       sodipodi:linespacing="125%"
       id="text4390"
       y="25.444534"
       x="54.31815"
       style="font-style:normal;font-variant:normal;font-weight:normal;font-stretch:normal;font-size:15px;line-height:125%;font-family:sans-serif;-inkscape-font-specification:'sans-serif, Normal';text-align:start;letter-spacing:0px;word-spacing:0px;writing-mode:lr-tb;text-anchor:start;fill:#000000;fill-opacity:1;stroke:none;stroke-width:1px;stroke-linecap:butt;stroke-linejoin:miter;stroke-opacity:1"
       xml:space="preserve"><tspan
         y="25.444534"
         x="54.31815"
         id="tspan4392"
         sodipodi:role="line">+</tspan></text>
    <text
       transform="scale(1.0947065,0.91348688)"
       sodipodi:linespacing="125%"
       id="text4394"
       y="60.07579"
       x="0.98825938"
       style="font-style:normal;font-variant:normal;font-weight:normal;font-stretch:normal;font-size:16.42059517px;line-height:125%;font-family:sans-serif;-inkscape-font-specification:'sans-serif, Normal';text-align:start;letter-spacing:0px;word-spacing:0px;writing-mode:lr-tb;text-anchor:start;fill:#000000;fill-opacity:1;stroke:none;stroke-width:1px;stroke-linecap:butt;stroke-linejoin:miter;stroke-opacity:1"
       xml:space="preserve"><tspan
         y="60.07579"
         x="0.98825938"
         id="tspan4396"
         sodipodi:role="line">-</tspan></text>
    <rect
       style="fill:none;fill-opacity:1;stroke:#000000;stroke-width:0.07086614;stroke-linecap:butt;stroke-linejoin:round;stroke-miterlimit:4;stroke-dasharray:none;stroke-opacity:1"
       id="rect4398"
       width="70.795273"
       height="70.795273"
       x="1.0309365"
       y="0.8924368" />
    <path
       style="fill:none;fill-opacity:1;stroke:#000000;stroke-width:0.99900013;stroke-linecap:butt;stroke-linejoin:round;stroke-miterlimit:4;stroke-dasharray:none;stroke-opacity:1"
       d="m 25.659862,41.811322 a 7.5994736,6.5207038 0 0 0 -0.736969,-2.787165 l -13.721413,0 a 7.5994736,6.5207038 0 0 0 -0.73991,2.787165 7.5994736,6.5207038 0 0 0 7.598409,6.521103 7.5994736,6.5207038 0 0 0 7.599883,-6.521103 z"
       id="path4400"
       inkscape:connector-curvature="0" />
    <circle
       transform="matrix(0,1,-1,0,0,0)"
       style="fill:none;fill-opacity:1;stroke:#000000;stroke-width:0.07086614;stroke-linecap:butt;stroke-linejoin:round;stroke-miterlimit:4;stroke-dasharray:none;stroke-opacity:1"
       id="ellipse4402"
       cx="41.183716"
       cy="-18.631889"
       r="1.3818897" />
    <circle
       transform="matrix(0,1,-1,0,0,0)"
       cy="-9.6330633"
       cx="41.183716"
       id="ellipse4404"
       style="fill:none;fill-opacity:1;stroke:#000000;stroke-width:0.07086614;stroke-linecap:butt;stroke-linejoin:round;stroke-miterlimit:4;stroke-dasharray:none;stroke-opacity:1"
       r="1.3818897" />
    <circle
       transform="matrix(0,1,-1,0,0,0)"
       cy="-27.633068"
       cx="41.183716"
       id="ellipse4406"
       style="fill:none;fill-opacity:1;stroke:#000000;stroke-width:0.07086614;stroke-linecap:butt;stroke-linejoin:round;stroke-miterlimit:4;stroke-dasharray:none;stroke-opacity:1"
       r="1.3818897" />
    <rect
       transform="matrix(0,1,-1,0,0,0)"
       style="fill:none;fill-opacity:1;stroke:#000000;stroke-width:0.99921256;stroke-linecap:butt;stroke-linejoin:round;stroke-miterlimit:4;stroke-dasharray:none;stroke-opacity:1"
       id="rect4408"
       width="20.26063"
       height="7.859055"
       x="11.079445"
       y="-22.040909" />
    <circle
       transform="matrix(0,1,-1,0,0,0)"
       cy="-18.112539"
       cx="7.0378599"
       id="ellipse4410"
       style="fill:none;fill-opacity:1;stroke:#000000;stroke-width:0.07086614;stroke-linecap:butt;stroke-linejoin:round;stroke-miterlimit:4;stroke-dasharray:none;stroke-opacity:1"
       r="1.3818897" />
    <circle
       transform="matrix(0,1,-1,0,0,0)"
       style="fill:none;fill-opacity:1;stroke:#000000;stroke-width:0.07086614;stroke-linecap:butt;stroke-linejoin:round;stroke-miterlimit:4;stroke-dasharray:none;stroke-opacity:1"
       id="ellipse4412"
       cx="32.944832"
       cy="-18.799105"
       r="1.3818897" />
    <path
       inkscape:connector-curvature="0"
       id="path4414"
       d="m 11.319267,64.776559 a 8.3560677,8.3581392 0 0 0 6.595029,3.230787 8.3560677,8.3581392 0 0 0 8.356585,-8.358661 8.3560677,8.3581392 0 0 0 -8.356585,-8.358662 8.3560677,8.3581392 0 0 0 -6.595029,3.243898 l 0,10.242638 z"
       style="fill:none;fill-opacity:1;stroke:#000000;stroke-width:0.99921256;stroke-linecap:butt;stroke-linejoin:round;stroke-miterlimit:4;stroke-dasharray:none;stroke-opacity:1" />
    <circle
       transform="matrix(0,-1,1,0,0,0)"
       cy="28.222015"
       cx="-59.263577"
       id="ellipse4416"
       style="fill:none;fill-opacity:1;stroke:#000000;stroke-width:0.07086614;stroke-linecap:butt;stroke-linejoin:round;stroke-miterlimit:4;stroke-dasharray:none;stroke-opacity:1"
       r="1.3818897" />
    <circle
       transform="matrix(0,-1,1,0,0,0)"
       cy="10.222011"
       cx="-59.263577"
       id="ellipse4418"
       style="fill:none;fill-opacity:1;stroke:#000000;stroke-width:0.07086614;stroke-linecap:butt;stroke-linejoin:round;stroke-miterlimit:4;stroke-dasharray:none;stroke-opacity:1"
       r="1.3818897" />
    <circle
       transform="matrix(0,-1,1,0,0,0)"
       cy="9.9308758"
       cx="-49.903572"
       id="ellipse4420"
       style="fill:none;fill-opacity:1;stroke:#000000;stroke-width:0.07086614;stroke-linecap:butt;stroke-linejoin:round;stroke-miterlimit:4;stroke-dasharray:none;stroke-opacity:1"
       r="1.3818897" />
    <circle
       transform="matrix(0,-1,1,0,0,0)"
       cy="65.364639"
       cx="-23.605589"
       id="ellipse4422"
       style="fill:none;fill-opacity:1;stroke:#000000;stroke-width:0.07086614;stroke-linecap:butt;stroke-linejoin:round;stroke-miterlimit:4;stroke-dasharray:none;stroke-opacity:1"
       r="1.3818897" />
    <path
       inkscape:connector-curvature="0"
       id="path4424"
       d="m 18.489127,7.4635662 c 1.077658,0.2161418 0.749349,-0.038976 1.183748,0.3947244 0.0658,0.067323 0.109063,0.1665355 0.197291,0.1984252 0.113032,0.038976 0.80123,0 0.98646,0 0.131528,0 0.263055,0 0.394579,0 0.0658,0 0.138473,-0.035433 0.197292,0 0.0832,0.04252 0.114094,0.1559056 0.197291,0.1984252 0.05882,0.035433 0.131528,0 0.197291,0 0.0658,0 0.150804,0.046063 0.197292,0 0.04649,-0.046063 -0.04649,-0.1523622 0,-0.1984252 0.0089,0 0.893434,0 0.986453,0 0.85494,0 1.709869,0 2.564801,0 0.177839,0 0.862278,0.04252 0.98646,0 0.1395,-0.046063 0.255083,-0.1523622 0.394579,-0.1984252 0.0624,-0.035433 0.150804,0.046063 0.197292,0 0.04649,-0.046063 -0.04649,-0.1523622 0,-0.1984252 0.04649,-0.046063 0.131527,0 0.197291,0 0.46035,0 0.9207,0 1.38105,0 0.0658,0 0.131528,0 0.197291,0 0.0658,0 0.150803,-0.046063 0.197292,0 0.04649,0.046063 -0.04649,0.1523622 0,0.1984252 0.04649,0.046063 0.131527,0 0.197291,0 0.0658,0 0.131527,0 0.197291,0 0.197292,0 0.39459,0 0.591878,0"
       style="fill:none;fill-rule:evenodd;stroke:#000000;stroke-width:1px;stroke-linecap:butt;stroke-linejoin:miter;stroke-opacity:1" />
    <path
       inkscape:connector-curvature="0"
       id="path4426"
       d="m 64.543994,8.1038418 c -0.09361,1.5884646 0.329209,2.7637792 0.591881,4.5056692 0.04358,0.290551 -0.05581,0.584291 0,0.872008 0.04741,0.244488 0.142158,0.482953 0.197291,0.726732 0.01063,0.04606 -0.0209,0.09921 0,0.145276 0.04649,0.102756 0.161646,0.184252 0.197292,0.290551 0.03189,0.09213 0,0.194882 0,0.290551 0,0.240945 0,0.48437 0,0.726733 0,0.04961 -0.02941,0.102755 0,0.145275 0.0416,0.06378 0.155693,0.08504 0.197291,0.145276 0.02941,0.04252 -0.04649,0.113386 0,0.145275 0.04649,0.03543 0.150803,-0.03543 0.197291,0 0.006,0 0,0.400748 0,0.436181 0,0.184252 0,0.134646 0,0.872008 0,1.065827 0,2.131654 0,3.197481 0,0.09567 0,0.194882 0,0.290551 0,0.04961 0.04649,0.113386 0,0.145275 -0.04649,0.03543 -0.150803,-0.03543 -0.197291,0 -0.05411,0.03898 0.04621,0.624685 0,0.726733 -0.04649,0.102756 -0.150803,0.187795 -0.197291,0.290551 -0.0371,0.0815 0,0.340157 0,0.435827 0,0.240945 0,0.48437 0,0.726732 0,0.04961 0,0.09567 0,0.145276 0,0.04961 -0.04649,0.113385 0,0.145275 0.263055,0.194882 0.197291,-0.240945 0.197291,0.145276"
       style="fill:none;fill-rule:evenodd;stroke:#000000;stroke-width:1px;stroke-linecap:butt;stroke-linejoin:miter;stroke-opacity:1" />
    <path
       inkscape:connector-curvature="0"
       id="path4428"
       d="m 66.286493,41.064039 c 0.131528,-0.198425 0.301571,-0.387992 0.39459,-0.600236 0.0832,-0.187796 -0.05159,-0.404292 0,-0.600237 0.04078,-0.152362 0.146835,-0.297637 0.197291,-0.45 0.01595,-0.04961 -0.0039,-0.09921 0,-0.152362 0.0619,-0.800433 0.138827,-1.600157 0.197292,-2.400945 0.02161,-0.297638 0,-0.602008 0,-0.9 0,-0.550275 0,-1.100551 0,-1.650827 0,-0.148818 0,-0.301181 0,-0.45 0,-0.09921 -0.03189,-0.201968 0,-0.301181 0.03572,-0.106299 0.161645,-0.191338 0.197291,-0.301181 0.03189,-0.09567 0,-0.198425 0,-0.301181 0,-0.251575 0,-0.49996 0,-0.750118 0,-0.0815 0.02835,-0.707244 0,-0.750118 -0.0416,-0.06378 -0.155693,-0.08504 -0.197291,-0.152362 -0.02941,-0.04606 0,-0.09921 0,-0.152362 0,-0.09921 0,-0.198426 0,-0.301182 0,-0.350787 0,-0.700157 0,-1.050236 0,-0.350787 0,-0.700512 0,-1.05059 0,-0.04961 0.04649,-0.116929 0,-0.152363 -0.04649,-0.03543 -0.150804,0.03543 -0.197292,0 -0.04649,-0.03543 0.02091,-0.102755 0,-0.152362 -0.04649,-0.106299 -0.150803,-0.194882 -0.197291,-0.301181 -0.02091,-0.04961 0.02941,-0.106299 0,-0.152362 -0.0416,-0.06024 -0.155693,-0.08504 -0.197291,-0.152362 -0.05878,-0.08858 0.09301,-0.230315 0,-0.301181 -0.04649,-0.03543 -0.150804,0.03543 -0.197292,0 -0.04649,-0.03543 0.02941,-0.1063 0,-0.152363 -0.0832,-0.127559 -0.311386,-0.173622 -0.394579,-0.301181 -0.02941,-0.04606 0.04649,-0.113386 0,-0.152362 -0.04649,-0.03543 -0.150803,0.03543 -0.197291,0 -0.04649,-0.03543 0.04649,-0.116929 0,-0.152362 -0.04649,-0.03543 -0.138473,0.03543 -0.197292,0 -0.821079,-0.311811 0.210898,0 -0.197291,-0.301181 -0.04649,-0.03543 -0.150803,0.03543 -0.197291,0 -0.131492,-0.09921 0.131527,-0.198425 0,-0.301181 -0.04649,-0.03543 -0.150803,0.03543 -0.197291,0 -0.04649,-0.03543 0.02941,-0.1063 0,-0.152363 -0.0416,-0.06024 -0.155693,-0.08504 -0.197292,-0.152362 -0.02941,-0.04606 0.02941,-0.106299 0,-0.148819 -0.0416,-0.06024 -0.114094,-0.116929 -0.197291,-0.152362 -0.05882,-0.03543 -0.197291,0.04961 -0.197291,0 0,-0.219685 0.654331,0.347244 0,-0.152362"
       style="fill:none;fill-rule:evenodd;stroke:#000000;stroke-width:1px;stroke-linecap:butt;stroke-linejoin:miter;stroke-opacity:1" />
    <path
       inkscape:connector-curvature="0"
       id="path4430"
       d="m 27.305718,42.287543 c 0.263055,-0.06732 0.523279,-0.145276 0.789168,-0.198425 0.222237,-0.04606 0.550262,0 0.789162,0 0.657641,0 1.315279,0 1.97292,0 0.131528,0 0.263056,0 0.39458,0 0.131527,0 0.276944,0.06024 0.394589,0 0.05878,-0.03543 -0.05878,-0.166536 0,-0.198426 0.04638,-0.03543 0.659562,0 0.789162,0 0.591878,0 1.183759,0 1.775629,0"
       style="fill:none;fill-rule:evenodd;stroke:#000000;stroke-width:1px;stroke-linecap:butt;stroke-linejoin:miter;stroke-opacity:1" />
    <path
       inkscape:connector-curvature="0"
       id="path4432"
       d="m 26.753008,59.596598 c 0.29211,-0.340158 0.347173,-0.816732 0.591877,-1.183465 0.154772,-0.233858 0.437103,-0.36 0.591871,-0.592086 0.07299,-0.109843 -0.05878,-0.276378 0,-0.39437 0.0832,-0.166536 0.311385,-0.226772 0.394582,-0.394725 0.02941,-0.06024 -0.005,-0.131102 0,-0.198425 0.06031,-0.723898 0.136985,-1.446378 0.197292,-2.170276 0.02197,-0.262204 0,-0.525826 0,-0.789094 0,-0.591732 0,-1.183819 0,-1.775551 0,-1.052362 0,-2.10437 0,-3.156733 0,-0.460275 0,-0.920551 0,-1.381181 0,-0.131102 0,-0.262204 0,-0.39437 0,-0.06732 0.02941,-0.138189 0,-0.198425 -0.0416,-0.0815 -0.155693,-0.113386 -0.197292,-0.198425 -0.02941,-0.06024 0,-0.131102 0,-0.198425 0,-0.06732 -0.04649,-0.148819 0,-0.198426 0.04649,-0.04606 0.181347,0.06378 0.197292,0 0.06382,-0.255118 0,-0.526181 0,-0.789448 0,-0.06732 0,-0.131103 0,-0.198426 0,-0.06732 0.04649,-0.152362 0,-0.198425 -0.04649,-0.04606 -0.150803,0.04606 -0.197292,0 -0.09301,-0.09213 0.117638,-0.336614 0,-0.394724 -0.52611,-0.262205 -0.394582,0.394724 -0.394582,-0.39437 0,-0.394725 0,-0.789449 0,-1.183819 0,-0.06732 -0.04649,-0.152362 0,-0.198425 0.103996,-0.102756 0.290586,-0.09213 0.394582,-0.198426 0.04649,-0.04606 0,-0.131102 0,-0.198425 0,-0.09213 -0.0089,-0.977244 0,-0.986456 0.04649,-0.04606 0.131528,0 0.197292,0"
       style="fill:none;fill-rule:evenodd;stroke:#000000;stroke-width:1px;stroke-linecap:butt;stroke-linejoin:miter;stroke-opacity:1" />
    <path
       inkscape:connector-curvature="0"
       id="path4434"
       d="m 9.6548765,59.366283 c 0.4208815,-1.450984 0.3945795,-2.712756 0.3945795,-4.143189 0,-0.06732 0.03561,-0.682441 0,-0.789095 -0.04649,-0.138188 -0.1508036,-0.255118 -0.1972918,-0.394724 -0.041598,-0.124016 0,-0.262205 0,-0.39437 0,-0.131102 -0.041598,-0.269291 0,-0.394724 0.029409,-0.08858 0.1972918,-0.102756 0.1972918,-0.198426 0,-0.322441 -0.3696807,-0.04961 -0.1972918,-0.39437 0.041598,-0.0815 0.1556928,-0.113386 0.1972918,-0.198425 0.02941,-0.06024 -0.02941,-0.138189 0,-0.198425 0.451459,-0.902835 -0.081815,0.837283 0.394579,-0.591732 0.0416,-0.124016 -0.07299,-0.287008 0,-0.394725 0.441092,-0.661535 0.394589,-0.131102 0.394589,-0.591732 0,-0.138189 0.03572,-0.915236 0,-0.986457 -0.0416,-0.08504 -0.114094,-0.155905 -0.197291,-0.198425 -0.05882,-0.03543 -0.131527,0 -0.197291,0 -0.0658,0 -0.131528,0 -0.197292,0 -0.131527,-0.592087 -0.235063,-1.190551 -0.3945822,-1.775551 -0.038693,-0.141732 -0.1616457,-0.251575 -0.1972913,-0.394725 -0.067217,-0.269291 0.079618,-0.945 0,-1.183818 -0.029409,-0.08858 -0.1556929,-0.113386 -0.1972914,-0.198426 -0.1156535,-0.230315 0.1171063,-0.233858 0.1972914,-0.39437 0.029409,-0.06024 0,-0.131102 0,-0.198425 0,-0.06732 0,-0.131102 0,-0.198425 0,-1.315276 0,-2.630551 0,-3.945827"
       style="fill:none;fill-rule:evenodd;stroke:#000000;stroke-width:1px;stroke-linecap:butt;stroke-linejoin:miter;stroke-opacity:1" />
    <path
       inkscape:connector-curvature="0"
       id="path4436"
       d="m 19.062406,40.79333 c -0.0658,-0.752244 -0.143256,-1.504488 -0.197292,-2.257086 -0.04209,-0.585709 0,-1.179213 0,-1.765985 0,-0.162992 0,-0.325984 0,-0.490393 0,-0.03543 0,-0.06378 0,-0.09921 0,-0.03543 0.02941,-0.06732 0,-0.09921 -0.0416,-0.04252 -0.155693,-0.05669 -0.197291,-0.09921 -0.07891,-0.07795 0.07891,-0.216142 0,-0.294095 -0.0416,-0.04252 -0.155693,-0.05669 -0.197291,-0.09921 -0.04681,-0.04606 0.02268,-0.411378 0,-0.490748 -0.0658,-0.194882 -0.131528,-0.392599 -0.197292,-0.588898 -0.0658,-0.03543 -0.155693,-0.05669 -0.197291,-0.09921 -0.03572,-0.03543 0,-0.422362 0,-0.490748 0,-0.03543 0.04649,-0.07441 0,-0.09921 -0.09301,-0.04606 -0.39459,0.06378 -0.39459,0 0,-0.03543 0.150803,0.03543 0.197292,0 0.04649,-0.03543 -0.04649,-0.07441 0,-0.09921 0.04649,-0.03543 0.150803,0.03543 0.197291,0 0.04649,-0.03543 -0.04649,-0.07795 0,-0.09921 0.04649,-0.03543 0.131527,0 0.197291,0 0.0658,0 0.150803,-0.03543 0.197292,0 0.04649,0.03543 -0.0658,0.09921 0,0.09921 0.09301,0 0.114094,-0.07795 0.197291,-0.09921 0.263055,-0.06378 0.197291,0.09921 0.197291,-0.09921"
       style="fill:none;fill-rule:evenodd;stroke:#000000;stroke-width:1px;stroke-linecap:butt;stroke-linejoin:miter;stroke-opacity:1" />
    <text
       xml:space="preserve"
       style="font-style:normal;font-variant:normal;font-weight:normal;font-stretch:normal;font-size:10px;line-height:125%;font-family:sans-serif;-inkscape-font-specification:'sans-serif, Normal';text-align:start;letter-spacing:0px;word-spacing:0px;writing-mode:lr-tb;text-anchor:start;fill:#000000;fill-opacity:1;stroke:none;stroke-width:1px;stroke-linecap:butt;stroke-linejoin:miter;stroke-opacity:1"
       x="1.0714271"
       y="25.219347"
       id="text5139"
       sodipodi:linespacing="125%"><tspan
         sodipodi:role="line"
         id="tspan5141"
         x="1.0714271"
         y="25.219347">1k</tspan></text>
    <text
       xml:space="preserve"
       style="font-style:normal;font-variant:normal;font-weight:normal;font-stretch:normal;font-size:10px;line-height:125%;font-family:sans-serif;-inkscape-font-specification:'sans-serif, Normal';text-align:start;letter-spacing:0px;word-spacing:0px;writing-mode:lr-tb;text-anchor:start;fill:#000000;fill-opacity:1;stroke:none;stroke-width:1px;stroke-linecap:butt;stroke-linejoin:miter;stroke-opacity:1"
       x="31.60714"
       y="56.826488"
       id="text5143"
       sodipodi:linespacing="125%"><tspan
         sodipodi:role="line"
         id="tspan5145"
         x="31.60714"
         y="56.826488">BC337</tspan></text>
    <text
       xml:space="preserve"
       style="font-style:normal;font-variant:normal;font-weight:normal;font-stretch:normal;font-size:10px;line-height:125%;font-family:sans-serif;-inkscape-font-specification:'sans-serif, Normal';text-align:start;letter-spacing:0px;word-spacing:0px;writing-mode:lr-tb;text-anchor:start;fill:#000000;fill-opacity:1;stroke:none;stroke-width:1px;stroke-linecap:butt;stroke-linejoin:miter;stroke-opacity:1"
       x="32.142857"
       y="68.076492"
       id="text5147"
       sodipodi:linespacing="125%"><tspan
         sodipodi:role="line"
         id="tspan5149"
         x="32.142857"
         y="68.076492">LED</tspan></text>
    <text
       xml:space="preserve"
       style="font-style:normal;font-variant:normal;font-weight:normal;font-stretch:normal;font-size:7.5px;line-height:125%;font-family:sans-serif;-inkscape-font-specification:'sans-serif, Normal';text-align:start;letter-spacing:0px;word-spacing:0px;writing-mode:lr-tb;text-anchor:start;fill:#000000;fill-opacity:1;stroke:none;stroke-width:1px;stroke-linecap:butt;stroke-linejoin:miter;stroke-opacity:1"
       x="3.2142863"
       y="42.362206"
       id="text5151"
       sodipodi:linespacing="125%"><tspan
         sodipodi:role="line"
         id="tspan5153"
         x="3.2142863"
         y="42.362206">e</tspan></text>
    <text
       sodipodi:linespacing="125%"
       id="text5155"
       y="47.147919"
       x="15.357143"
       style="font-style:normal;font-variant:normal;font-weight:normal;font-stretch:normal;font-size:7.5px;line-height:125%;font-family:sans-serif;-inkscape-font-specification:'sans-serif, Normal';text-align:start;letter-spacing:0px;word-spacing:0px;writing-mode:lr-tb;text-anchor:start;fill:#000000;fill-opacity:1;stroke:none;stroke-width:1px;stroke-linecap:butt;stroke-linejoin:miter;stroke-opacity:1"
       xml:space="preserve"><tspan
         y="47.147919"
         x="15.357143"
         id="tspan5157"
         sodipodi:role="line">b</tspan></text>
    <text
       xml:space="preserve"
       style="font-style:normal;font-variant:normal;font-weight:normal;font-stretch:normal;font-size:7.5px;line-height:125%;font-family:sans-serif;-inkscape-font-specification:'sans-serif, Normal';text-align:start;letter-spacing:0px;word-spacing:0px;writing-mode:lr-tb;text-anchor:start;fill:#000000;fill-opacity:1;stroke:none;stroke-width:1px;stroke-linecap:butt;stroke-linejoin:miter;stroke-opacity:1"
       x="25.892859"
       y="38.183632"
       id="text5159"
       sodipodi:linespacing="125%"><tspan
         sodipodi:role="line"
         id="tspan5161"
         x="25.892859"
         y="38.183632">c</tspan></text>
    <text
       xml:space="preserve"
       style="font-style:normal;font-variant:normal;font-weight:normal;font-stretch:normal;font-size:10px;line-height:125%;font-family:sans-serif;-inkscape-font-specification:'sans-serif, Normal';text-align:start;letter-spacing:0px;word-spacing:0px;writing-mode:lr-tb;text-anchor:start;fill:#000000;fill-opacity:1;stroke:none;stroke-width:1px;stroke-linecap:butt;stroke-linejoin:miter;stroke-opacity:1"
       x="29.821428"
       y="17.897919"
       id="text5163"
       sodipodi:linespacing="125%"><tspan
         sodipodi:role="line"
         id="tspan5165"
         x="29.821428"
         y="17.897919">~15</tspan><tspan
         sodipodi:role="line"
         x="29.821428"
         y="30.397919"
         id="tspan5185">turns</tspan></text>
    <text
       xml:space="preserve"
       style="font-style:normal;font-variant:normal;font-weight:normal;font-stretch:normal;font-size:10px;line-height:125%;font-family:sans-serif;-inkscape-font-specification:'sans-serif, Normal';text-align:start;letter-spacing:0px;word-spacing:0px;writing-mode:lr-tb;text-anchor:start;fill:#000000;fill-opacity:1;stroke:none;stroke-width:1px;stroke-linecap:butt;stroke-linejoin:miter;stroke-opacity:1"
       x="38.729073"
       y="40.041122"
       id="text5163-3"
       sodipodi:linespacing="125%"><tspan
         sodipodi:role="line"
         id="tspan5165-2"
         x="38.729073"
         y="40.041122">~15</tspan></text>
    <text
       xml:space="preserve"
       style="font-style:normal;font-variant:normal;font-weight:normal;font-stretch:normal;font-size:7.5px;line-height:125%;font-family:sans-serif;-inkscape-font-specification:'sans-serif, Normal';text-align:start;letter-spacing:0px;word-spacing:0px;writing-mode:lr-tb;text-anchor:start;fill:#000000;fill-opacity:1;stroke:none;stroke-width:1px;stroke-linecap:butt;stroke-linejoin:miter;stroke-opacity:1"
       x="26.683697"
       y="66.559502"
       id="text5151-2"
       sodipodi:linespacing="125%"><tspan
         sodipodi:role="line"
         id="tspan5153-0"
         x="26.683697"
         y="66.559502">a</tspan></text>
    <text
       sodipodi:linespacing="125%"
       id="text5251"
       y="65.845222"
       x="5.4336977"
       style="font-style:normal;font-variant:normal;font-weight:normal;font-stretch:normal;font-size:7.5px;line-height:125%;font-family:sans-serif;-inkscape-font-specification:'sans-serif, Normal';text-align:start;letter-spacing:0px;word-spacing:0px;writing-mode:lr-tb;text-anchor:start;fill:#000000;fill-opacity:1;stroke:none;stroke-width:1px;stroke-linecap:butt;stroke-linejoin:miter;stroke-opacity:1"
       xml:space="preserve"><tspan
         y="65.845222"
         x="5.4336977"
         id="tspan5253"
         sodipodi:role="line">c</tspan></text>
  </g>
</svg>
